<?xml version="1.0" encoding="UTF-8" standalone="no"?>
<!-- Created with Inkscape (http://www.inkscape.org/) -->

<svg
   xmlns:dc="http://purl.org/dc/elements/1.1/"
   xmlns:cc="http://creativecommons.org/ns#"
   xmlns:rdf="http://www.w3.org/1999/02/22-rdf-syntax-ns#"
   xmlns:svg="http://www.w3.org/2000/svg"
   xmlns="http://www.w3.org/2000/svg"
   xmlns:sodipodi="http://sodipodi.sourceforge.net/DTD/sodipodi-0.dtd"
   xmlns:inkscape="http://www.inkscape.org/namespaces/inkscape"
   width="99.958801mm"
   height="99.958801mm"
   viewBox="0 0 99.958801 99.958801"
   version="1.1"
   id="svg8"
   sodipodi:docname="deeplc.svg"
   inkscape:version="0.92.4 (5da689c313, 2019-01-14)"
   inkscape:export-filename="E:\OneDrive - UGent\Graphics\Software logos\DeepLC\deeplc.png"
   inkscape:export-xdpi="254.10468"
   inkscape:export-ydpi="254.10468">
  <defs
     id="defs2" />
  <sodipodi:namedview
     id="base"
     pagecolor="#ffffff"
     bordercolor="#666666"
     borderopacity="1.0"
     inkscape:pageopacity="0.0"
     inkscape:pageshadow="2"
     inkscape:zoom="1.4"
     inkscape:cx="32.037293"
     inkscape:cy="85.472303"
     inkscape:document-units="mm"
     inkscape:current-layer="layer1"
     showgrid="false"
     inkscape:window-width="3378"
     inkscape:window-height="1417"
     inkscape:window-x="54"
     inkscape:window-y="-8"
     inkscape:window-maximized="1"
     showguides="true"
     inkscape:guide-bbox="true" />
  <metadata
     id="metadata5">
    <rdf:RDF>
      <cc:Work
         rdf:about="">
        <dc:format>image/svg+xml</dc:format>
        <dc:type
           rdf:resource="http://purl.org/dc/dcmitype/StillImage" />
        <dc:title></dc:title>
      </cc:Work>
    </rdf:RDF>
  </metadata>
  <g
     inkscape:label="Layer 1"
     inkscape:groupmode="layer"
     id="layer1"
     transform="translate(-55.020599,-98.520607)">
    <ellipse
       style="fill:#763737;fill-opacity:1;stroke-width:0.26458332"
       id="path818"
       cx="105"
       cy="148.5"
       rx="49.979401"
       ry="49.979397" />
    <rect
       style="fill:#ffffff;fill-opacity:0;stroke-width:0.21700473"
       id="rect4528"
       width="99.958801"
       height="99.958801"
       x="55.020599"
       y="98.520607"
       inkscape:export-xdpi="254.10468"
       inkscape:export-ydpi="254.10468" />
    <g
       aria-label="DeepLC"
       transform="matrix(0.494025,0,0,0.494025,14.021718,56.979426)"
       style="font-style:normal;font-variant:normal;font-weight:300;font-stretch:condensed;font-size:24px;line-height:1.25;font-family:Bahnschrift;-inkscape-font-specification:'Bahnschrift Light Condensed';font-variant-ligatures:normal;font-variant-caps:normal;font-variant-numeric:normal;font-feature-settings:normal;text-align:start;letter-spacing:0px;word-spacing:0px;writing-mode:lr-tb;text-anchor:start;fill:#ffffff;fill-opacity:1;stroke:none"
       id="flowRoot884">
      <path
         d="m 115.52232,199.27594 h 6.99661 q 1.57889,0 2.41477,-0.92876 0.86683,-0.95971 0.86683,-2.69338 v -24.82869 q 0,-1.73368 -0.86683,-2.66243 -0.83588,-0.95972 -2.41477,-0.95972 h -6.99661 v -6.47031 h 7.3062 q 3.09585,0 5.2939,1.14546 2.19805,1.14546 3.34351,3.34351 1.17642,2.1671 1.17642,5.26294 v 25.50978 q 0,3.06489 -1.17642,5.26294 -1.17642,2.19805 -3.37447,3.34351 -2.19805,1.14547 -5.2939,1.14547 h -7.27524 z m -4.42706,-38.54329 h 6.81086 v 45.01361 h -6.81086 z"
         style="font-style:normal;font-variant:normal;font-weight:600;font-stretch:condensed;font-size:63.40293884px;font-family:Bahnschrift;-inkscape-font-specification:'Bahnschrift Semi-Bold Condensed';text-align:center;text-anchor:middle;fill:#ffffff;fill-opacity:1"
         id="path822" />
      <path
         d="m 148.12159,206.21063 q -3.15777,0 -5.38678,-1.20738 -2.22901,-1.20738 -3.43639,-3.4983 -1.17642,-2.29093 -1.17642,-5.57253 v -12.01188 q 0,-3.43639 1.14547,-5.88211 1.17642,-2.44572 3.34351,-3.71502 2.19805,-1.2693 5.26294,-1.2693 3.09585,0 5.2939,1.20739 2.22901,1.20738 3.37447,3.52926 1.17642,2.29093 1.17642,5.60348 v 8.79221 h -14.42664 v -5.26294 h 7.89441 v -3.62214 q 0,-1.98134 -0.86684,-3.06489 -0.86684,-1.11451 -2.44572,-1.11451 -1.54792,0 -2.3838,1.17643 -0.83588,1.14546 -0.83588,3.28159 v 12.56914 q 0,1.85751 0.89779,2.87914 0.8978,0.99067 2.56956,0.99067 1.51696,0 2.35284,-0.77396 0.83588,-0.80492 0.83588,-2.22901 v -0.65013 l 6.50128,0.031 v 0.55725 q 0,4.42706 -2.5386,6.84182 -2.53859,2.41476 -7.1514,2.41476 z"
         style="font-style:normal;font-variant:normal;font-weight:600;font-stretch:condensed;font-size:63.40293884px;font-family:Bahnschrift;-inkscape-font-specification:'Bahnschrift Semi-Bold Condensed';text-align:center;text-anchor:middle;fill:#ffffff;fill-opacity:1"
         id="path824" />
      <path
         d="m 173.01219,206.21063 q -3.15776,0 -5.38677,-1.20738 -2.22901,-1.20738 -3.43639,-3.4983 -1.17642,-2.29093 -1.17642,-5.57253 v -12.01188 q 0,-3.43639 1.14546,-5.88211 1.17642,-2.44572 3.34351,-3.71502 2.19805,-1.2693 5.26294,-1.2693 3.09585,0 5.2939,1.20739 2.22901,1.20738 3.37447,3.52926 1.17643,2.29093 1.17643,5.60348 v 8.79221 h -14.42665 v -5.26294 h 7.89441 v -3.62214 q 0,-1.98134 -0.86684,-3.06489 -0.86684,-1.11451 -2.44572,-1.11451 -1.54792,0 -2.3838,1.17643 -0.83588,1.14546 -0.83588,3.28159 v 12.56914 q 0,1.85751 0.8978,2.87914 0.89779,0.99067 2.56955,0.99067 1.51697,0 2.35284,-0.77396 0.83588,-0.80492 0.83588,-2.22901 v -0.65013 l 6.50128,0.031 v 0.55725 q 0,4.42706 -2.53859,6.84182 -2.5386,2.41476 -7.15141,2.41476 z"
         style="font-style:normal;font-variant:normal;font-weight:600;font-stretch:condensed;font-size:63.40293884px;font-family:Bahnschrift;-inkscape-font-specification:'Bahnschrift Semi-Bold Condensed';text-align:center;text-anchor:middle;fill:#ffffff;fill-opacity:1"
         id="path826" />
      <path
         d="m 188.55334,173.61137 h 6.81087 v 45.19936 h -6.81087 z m 12.66202,32.59926 q -2.22901,0 -3.90077,-1.45505 -1.6408,-1.45504 -2.3838,-4.05555 l 0.43342,-4.76761 q 0,1.30026 0.3715,2.22901 0.3715,0.92876 1.05259,1.42409 0.71204,0.46438 1.70271,0.46438 1.45505,0 2.25997,-1.08355 0.80492,-1.1145 0.80492,-3.15776 v -12.50722 q 0,-1.95039 -0.80492,-3.00297 -0.80492,-1.08355 -2.25997,-1.08355 -0.99067,0 -1.70271,0.46438 -0.68109,0.43342 -1.05259,1.33121 -0.3715,0.8978 -0.3715,2.16709 l -0.65013,-4.24131 q 0.99067,-2.81722 2.7553,-4.33418 1.79559,-1.54793 3.96269,-1.54793 2.16709,0 3.68405,1.11451 1.54793,1.1145 2.35285,3.25064 0.80492,2.13613 0.80492,5.17006 v 13.90035 q 0,3.06489 -0.83588,5.26294 -0.83588,2.19805 -2.41476,3.34352 -1.57888,1.1145 -3.80789,1.1145 z"
         style="font-style:normal;font-variant:normal;font-weight:600;font-stretch:condensed;font-size:63.40293884px;font-family:Bahnschrift;-inkscape-font-specification:'Bahnschrift Semi-Bold Condensed';text-align:center;text-anchor:middle;fill:#ffffff;fill-opacity:1"
         id="path828" />
      <path
         d="m 213.75353,160.73265 h 6.81086 v 45.01361 h -6.81086 z m 3.18872,38.54329 h 15.8817 v 6.47032 h -15.8817 z"
         style="font-style:normal;font-variant:normal;font-weight:600;font-stretch:condensed;font-size:63.40293884px;font-family:Bahnschrift;-inkscape-font-specification:'Bahnschrift Semi-Bold Condensed';text-align:center;text-anchor:middle;fill:#ffffff;fill-opacity:1"
         id="path830" />
      <path
         d="m 246.56951,206.21063 q -3.34351,0 -5.72731,-1.36217 -2.38381,-1.36217 -3.6531,-3.93173 -1.2693,-2.56955 -1.2693,-6.19169 v -22.94022 q 0,-3.6531 1.2693,-6.22265 1.26929,-2.56956 3.6531,-3.93173 2.3838,-1.36217 5.72731,-1.36217 3.37447,0 5.75828,1.36217 2.3838,1.33121 3.62214,3.93173 1.26929,2.60051 1.26929,6.22265 v 2.7553 h -6.87277 v -2.7553 q 0,-1.48601 -0.43342,-2.56955 -0.43342,-1.08355 -1.30026,-1.6408 -0.83588,-0.55726 -2.04326,-0.55726 -1.17642,0 -2.0123,0.55726 -0.83588,0.55725 -1.30025,1.6408 -0.46438,1.05258 -0.46438,2.56955 v 22.94022 q 0,1.51697 0.46438,2.56955 0.46437,1.05259 1.30025,1.60984 0.83588,0.55726 2.0123,0.55726 1.23834,0 2.07422,-0.55726 0.83588,-0.58821 1.2693,-1.64079 0.43342,-1.05259 0.43342,-2.56956 v -2.7553 h 6.87277 v 2.7553 q -0.031,3.62214 -1.26929,6.22265 -1.23834,2.60052 -3.6531,3.96269 -2.3838,1.33121 -5.72732,1.33121 z"
         style="font-style:normal;font-variant:normal;font-weight:600;font-stretch:condensed;font-size:63.40293884px;font-family:Bahnschrift;-inkscape-font-specification:'Bahnschrift Semi-Bold Condensed';text-align:center;text-anchor:middle;fill:#ffffff;fill-opacity:1"
         id="path832" />
    </g>
  </g>
</svg>
