<?xml version="1.0" encoding="UTF-8" standalone="no"?>
<!-- Created with Inkscape (http://www.inkscape.org/) -->

<svg
   xmlns:dc="http://purl.org/dc/elements/1.1/"
   xmlns:cc="http://creativecommons.org/ns#"
   xmlns:rdf="http://www.w3.org/1999/02/22-rdf-syntax-ns#"
   xmlns:svg="http://www.w3.org/2000/svg"
   xmlns="http://www.w3.org/2000/svg"
   xmlns:sodipodi="http://sodipodi.sourceforge.net/DTD/sodipodi-0.dtd"
   xmlns:inkscape="http://www.inkscape.org/namespaces/inkscape"
   width="99.958801mm"
   height="99.958801mm"
   viewBox="0 0 99.958801 99.958801"
   version="1.1"
   id="svg8"
   sodipodi:docname="deeplc.svg"
   inkscape:version="0.92.4 (5da689c313, 2019-01-14)"
   inkscape:export-filename="E:\OneDrive - UGent\Graphics\Software logos\deeplc.png"
   inkscape:export-xdpi="254.10001"
   inkscape:export-ydpi="254.10001">
  <defs
     id="defs2" />
  <sodipodi:namedview
     id="base"
     pagecolor="#ffffff"
     bordercolor="#666666"
     borderopacity="1.0"
     inkscape:pageopacity="0.0"
     inkscape:pageshadow="2"
     inkscape:zoom="0.7"
     inkscape:cx="-264.86178"
     inkscape:cy="122.09759"
     inkscape:document-units="mm"
     inkscape:current-layer="layer1"
     showgrid="false"
     inkscape:window-width="1842"
     inkscape:window-height="1177"
     inkscape:window-x="70"
     inkscape:window-y="-8"
     inkscape:window-maximized="1"
     showguides="false" />
  <metadata
     id="metadata5">
    <rdf:RDF>
      <cc:Work
         rdf:about="">
        <dc:format>image/svg+xml</dc:format>
        <dc:type
           rdf:resource="http://purl.org/dc/dcmitype/StillImage" />
        <dc:title></dc:title>
      </cc:Work>
    </rdf:RDF>
  </metadata>
  <g
     inkscape:label="Layer 1"
     inkscape:groupmode="layer"
     id="layer1"
     transform="translate(-55.020599,-98.520607)">
    <ellipse
       style="fill:#763737;fill-opacity:1;stroke-width:0.26458332"
       id="path818"
       cx="105"
       cy="148.5"
       rx="49.979401"
       ry="49.979397" />
    <rect
       style="fill:#ffffff;fill-opacity:0;stroke-width:0.21700473"
       id="rect4528"
       width="99.958801"
       height="99.958801"
       x="55.020599"
       y="98.520607"
       inkscape:export-xdpi="254.10468"
       inkscape:export-ydpi="254.10468" />
    <g
       aria-label="DeepLC"
       transform="matrix(0.40061235,0,0,0.40061235,29.192981,71.488256)"
       style="font-style:normal;font-variant:normal;font-weight:300;font-stretch:condensed;font-size:24px;line-height:1.25;font-family:Bahnschrift;-inkscape-font-specification:'Bahnschrift Light Condensed';font-variant-ligatures:normal;font-variant-caps:normal;font-variant-numeric:normal;font-feature-settings:normal;text-align:start;letter-spacing:0px;word-spacing:0px;writing-mode:lr-tb;text-anchor:start;fill:#ffffff;fill-opacity:1;stroke:none"
       id="flowRoot884">
      <path
         sodipodi:type="inkscape:offset"
         inkscape:radius="0"
         inkscape:original="M 255.64062 161.08789 C 253.26875 161.08789 251.23793 161.57079 249.54688 162.53711 C 247.85581 163.50343 246.55864 164.89788 245.6582 166.7207 C 244.75777 168.54354 244.30859 170.7503 244.30859 173.3418 L 244.30859 197.75391 C 244.30859 200.32343 244.75777 202.51896 245.6582 204.3418 C 246.55864 206.16462 247.85582 207.55907 249.54688 208.52539 C 251.23794 209.49171 253.26875 209.97461 255.64062 209.97461 C 258.0125 209.97461 260.04332 209.50295 261.73438 208.55859 C 263.4474 207.59227 264.74262 206.18658 265.62109 204.3418 C 266.49959 202.497 266.95072 200.29024 266.97266 197.7207 L 266.97266 194.78906 L 259.66016 194.78906 L 259.66016 197.7207 C 259.66016 198.79684 259.50473 199.70838 259.19727 200.45508 C 258.88981 201.20178 258.44063 201.7839 257.84766 202.20117 C 257.25469 202.59649 256.5191 202.79297 255.64062 202.79297 C 254.80608 202.79297 254.09297 202.59649 253.5 202.20117 C 252.90703 201.80586 252.44466 201.23303 252.11523 200.48633 C 251.78581 199.73963 251.62109 198.83003 251.62109 197.75391 L 251.62109 173.3418 C 251.62109 172.26567 251.78581 171.35413 252.11523 170.60742 C 252.44466 169.83876 252.90703 169.25664 253.5 168.86133 C 254.09297 168.46601 254.80608 168.26953 255.64062 168.26953 C 256.49714 168.26953 257.22149 168.46601 257.81445 168.86133 C 258.42939 169.25664 258.88981 169.83876 259.19727 170.60742 C 259.50473 171.37609 259.66016 172.28763 259.66016 173.3418 L 259.66016 176.27344 L 266.97266 176.27344 L 266.97266 173.3418 C 266.97266 170.77226 266.52153 168.5655 265.62109 166.7207 C 264.74262 164.87592 263.45864 163.48147 261.76758 162.53711 C 260.07652 161.57079 258.03447 161.08789 255.64062 161.08789 z M 111.48242 161.58203 L 111.48242 209.48047 L 116.19336 209.48047 L 118.73047 209.48047 L 123.93555 209.48047 C 126.13173 209.48047 128.00907 209.07431 129.56836 208.26172 C 131.12765 207.44913 132.32561 206.26241 133.16016 204.70312 C 133.99471 203.14383 134.41211 201.27773 134.41211 199.10352 L 134.41211 171.95898 C 134.41211 169.7628 133.99471 167.8967 133.16016 166.35938 C 132.34757 164.80009 131.16085 163.61337 129.60156 162.80078 C 128.04228 161.98819 126.16493 161.58203 123.96875 161.58203 L 118.73047 161.58203 L 116.19336 161.58203 L 111.48242 161.58203 z M 220.7207 161.58203 L 220.7207 209.48047 L 224.11328 209.48047 L 227.96875 209.48047 L 241.01367 209.48047 L 241.01367 202.5957 L 227.96875 202.5957 L 227.96875 161.58203 L 220.7207 161.58203 z M 118.73047 168.4668 L 123.63867 168.4668 C 124.75873 168.4668 125.61602 168.80747 126.20898 169.48828 C 126.82392 170.14713 127.13086 171.09045 127.13086 172.32031 L 127.13086 198.74219 C 127.13086 199.97205 126.82392 200.92661 126.20898 201.60742 C 125.61602 202.26628 124.75873 202.5957 123.63867 202.5957 L 118.73047 202.5957 L 118.73047 168.4668 z M 150.61914 174.69336 C 148.44492 174.69336 146.57882 175.14254 145.01953 176.04297 C 143.4822 176.9434 142.29548 178.26111 141.46094 179.99609 C 140.64835 181.73107 140.24219 183.8181 140.24219 186.25586 L 140.24219 199.03711 C 140.24219 201.36506 140.65959 203.34162 141.49414 204.9668 C 142.35065 206.59197 143.56914 207.83295 145.15039 208.68945 C 146.73164 209.54597 148.64271 209.97461 150.88281 209.97461 C 154.15513 209.97461 156.69132 209.11732 158.49219 207.4043 C 160.29305 205.69128 161.19336 203.26554 161.19336 200.125 L 161.19336 199.53125 L 154.27539 199.49805 L 154.27539 200.19141 C 154.27539 201.20165 153.97969 201.99149 153.38672 202.5625 C 152.79375 203.11155 151.95895 203.38672 150.88281 203.38672 C 149.69688 203.38672 148.78533 203.03481 148.14844 202.33203 C 147.51154 201.60729 147.19336 200.58528 147.19336 199.26758 L 147.19336 195.05078 L 161.0957 195.05078 L 161.0957 185.69531 C 161.0957 183.3454 160.6783 181.3576 159.84375 179.73242 C 159.03116 178.08529 157.83321 176.83503 156.25195 175.97852 C 154.69267 175.12201 152.81532 174.69336 150.61914 174.69336 z M 177.10547 174.69336 C 174.93125 174.69336 173.06319 175.14254 171.50391 176.04297 C 169.96658 176.9434 168.78182 178.26111 167.94727 179.99609 C 167.13468 181.73107 166.72852 183.8181 166.72852 186.25586 L 166.72852 199.03711 C 166.72852 201.36506 167.14592 203.34162 167.98047 204.9668 C 168.83698 206.59197 170.05547 207.83295 171.63672 208.68945 C 173.21797 209.54597 175.12903 209.97461 177.36914 209.97461 C 180.64145 209.97461 183.17764 209.11732 184.97852 207.4043 C 186.77938 205.69128 187.67969 203.26554 187.67969 200.125 L 187.67969 199.53125 L 180.76172 199.49805 L 180.76172 200.19141 C 180.76172 201.20165 180.46601 201.99149 179.87305 202.5625 C 179.28007 203.11155 178.44527 203.38672 177.36914 203.38672 C 176.1832 203.38672 175.27166 203.03481 174.63477 202.33203 C 173.99788 201.60729 173.67969 200.58528 173.67969 199.26758 L 173.67969 195.05078 L 187.58008 195.05078 L 187.58008 185.69531 C 187.58008 183.3454 187.16267 181.3576 186.32812 179.73242 C 185.51554 178.08529 184.31953 176.83503 182.73828 175.97852 C 181.17899 175.12201 179.30165 174.69336 177.10547 174.69336 z M 207.60938 174.69336 C 206.07205 174.69336 204.66636 175.24176 203.39258 176.33984 C 202.48416 177.12077 201.77163 178.23138 201.15234 179.49805 L 201.15234 175.28516 L 193.90625 175.28516 L 193.90625 223.38281 L 201.15234 223.38281 L 201.15234 205.21484 C 201.67206 206.50513 202.32528 207.62481 203.22852 208.42578 C 204.41445 209.45799 205.79765 209.97461 207.37891 209.97461 C 208.96015 209.97461 210.31159 209.57969 211.43164 208.78906 C 212.55169 207.97648 213.40703 206.78976 214 205.23047 C 214.59297 203.67118 214.89063 201.80508 214.89062 199.63086 L 214.89062 184.83984 C 214.89063 182.68759 214.60421 180.85326 214.0332 179.33789 C 213.4622 177.82252 212.62739 176.66953 211.5293 175.87891 C 210.45317 175.08828 209.1467 174.69336 207.60938 174.69336 z M 150.61914 181.15039 C 151.73919 181.15039 152.60578 181.54531 153.2207 182.33594 C 153.83564 183.1046 154.14453 184.1921 154.14453 185.59766 L 154.14453 189.45117 L 147.19336 189.45117 L 147.19336 185.89453 C 147.19336 184.37916 147.48906 183.21493 148.08203 182.40234 C 148.675 181.5678 149.52105 181.15039 150.61914 181.15039 z M 177.10547 181.15039 C 178.22552 181.15039 179.0921 181.54531 179.70703 182.33594 C 180.32196 183.1046 180.62891 184.1921 180.62891 185.59766 L 180.62891 189.45117 L 173.67969 189.45117 L 173.67969 185.89453 C 173.67969 184.37916 173.97539 183.21493 174.56836 182.40234 C 175.16133 181.5678 176.00738 181.15039 177.10547 181.15039 z M 204.48047 181.24805 C 205.51268 181.24805 206.31376 181.63368 206.88477 182.40234 C 207.45577 183.14905 207.74219 184.21406 207.74219 185.59766 L 207.74219 198.90625 C 207.74219 200.35573 207.45577 201.475 206.88477 202.26562 C 206.31376 203.03428 205.51268 203.41992 204.48047 203.41992 C 203.77769 203.41992 203.17309 203.25521 202.66797 202.92578 C 202.18481 202.57439 201.81237 202.06901 201.54883 201.41016 C 201.28529 200.7513 201.15234 199.9595 201.15234 199.03711 L 201.15234 185.46484 C 201.15234 184.56441 201.28529 183.79704 201.54883 183.16016 C 201.81237 182.52326 202.18481 182.04965 202.66797 181.74219 C 203.17309 181.41276 203.77769 181.24805 204.48047 181.24805 z "
         style="font-style:normal;font-variant:normal;font-weight:600;font-stretch:condensed;font-size:67.46666718px;font-family:Bahnschrift;-inkscape-font-specification:'Bahnschrift Semi-Bold Condensed';text-align:center;text-anchor:middle;fill:#ffffff;fill-opacity:1"
         id="path845"
         d="m 255.64062,161.08789 c -2.37187,0 -4.40269,0.4829 -6.09374,1.44922 -1.69107,0.96632 -2.98824,2.36077 -3.88868,4.18359 -0.90043,1.82284 -1.34961,4.0296 -1.34961,6.6211 v 24.41211 c 0,2.56952 0.44918,4.76505 1.34961,6.58789 0.90044,1.82282 2.19762,3.21727 3.88868,4.18359 1.69106,0.96632 3.72187,1.44922 6.09374,1.44922 2.37188,0 4.4027,-0.47166 6.09376,-1.41602 1.71302,-0.96632 3.00824,-2.37201 3.88671,-4.21679 0.8785,-1.8448 1.32963,-4.05156 1.35157,-6.6211 v -2.93164 h -7.3125 v 2.93164 c 0,1.07614 -0.15543,1.98768 -0.46289,2.73438 -0.30746,0.7467 -0.75664,1.32882 -1.34961,1.74609 -0.59297,0.39532 -1.32856,0.5918 -2.20704,0.5918 -0.83454,0 -1.54765,-0.19648 -2.14062,-0.5918 -0.59297,-0.39531 -1.05534,-0.96814 -1.38477,-1.71484 -0.32942,-0.7467 -0.49414,-1.6563 -0.49414,-2.73242 V 173.3418 c 0,-1.07613 0.16472,-1.98767 0.49414,-2.73438 0.32943,-0.76866 0.7918,-1.35078 1.38477,-1.74609 0.59297,-0.39532 1.30608,-0.5918 2.14062,-0.5918 0.85652,0 1.58087,0.19648 2.17383,0.5918 0.61494,0.39531 1.07536,0.97743 1.38282,1.74609 0.30746,0.76867 0.46289,1.68021 0.46289,2.73438 v 2.93164 h 7.3125 v -2.93164 c 0,-2.56954 -0.45113,-4.7763 -1.35157,-6.6211 -0.87847,-1.84478 -2.16245,-3.23923 -3.85351,-4.18359 -1.69106,-0.96632 -3.73311,-1.44922 -6.12696,-1.44922 z m -144.1582,0.49414 v 47.89844 h 4.71094 2.53711 5.20508 c 2.19618,0 4.07352,-0.40616 5.63281,-1.21875 1.55929,-0.81259 2.75725,-1.99931 3.5918,-3.5586 0.83455,-1.55929 1.25195,-3.42539 1.25195,-5.5996 v -27.14454 c 0,-2.19618 -0.4174,-4.06228 -1.25195,-5.5996 -0.81259,-1.55929 -1.99931,-2.74601 -3.5586,-3.5586 -1.55928,-0.81259 -3.43663,-1.21875 -5.63281,-1.21875 h -5.23828 -2.53711 z m 109.23828,0 v 47.89844 h 3.39258 3.85547 13.04492 v -6.88477 h -13.04492 v -41.01367 z m -101.99023,6.88477 h 4.9082 c 1.12006,0 1.97735,0.34067 2.57031,1.02148 0.61494,0.65885 0.92188,1.60217 0.92188,2.83203 v 26.42188 c 0,1.22986 -0.30694,2.18442 -0.92188,2.86523 -0.59296,0.65886 -1.45025,0.98828 -2.57031,0.98828 h -4.9082 z m 31.88867,6.22656 c -2.17422,0 -4.04032,0.44918 -5.59961,1.34961 -1.53733,0.90043 -2.72405,2.21814 -3.55859,3.95312 -0.81259,1.73498 -1.21875,3.82201 -1.21875,6.25977 v 12.78125 c 0,2.32795 0.4174,4.30451 1.25195,5.92969 0.85651,1.62517 2.075,2.86615 3.65625,3.72265 1.58125,0.85652 3.49232,1.28516 5.73242,1.28516 3.27232,0 5.80851,-0.85729 7.60938,-2.57031 1.80086,-1.71302 2.70117,-4.13876 2.70117,-7.2793 v -0.59375 l -6.91797,-0.0332 v 0.69336 c 0,1.01024 -0.2957,1.80008 -0.88867,2.37109 -0.59297,0.54905 -1.42777,0.82422 -2.50391,0.82422 -1.18593,0 -2.09748,-0.35191 -2.73437,-1.05469 -0.6369,-0.72474 -0.95508,-1.74675 -0.95508,-3.06445 v -4.2168 h 13.90234 v -9.35547 c 0,-2.34991 -0.4174,-4.33771 -1.25195,-5.96289 -0.81259,-1.64713 -2.01054,-2.89739 -3.5918,-3.7539 -1.55928,-0.85651 -3.43663,-1.28516 -5.63281,-1.28516 z m 26.48633,0 c -2.17422,0 -4.04228,0.44918 -5.60156,1.34961 -1.53733,0.90043 -2.72209,2.21814 -3.55664,3.95312 -0.81259,1.73498 -1.21875,3.82201 -1.21875,6.25977 v 12.78125 c 0,2.32795 0.4174,4.30451 1.25195,5.92969 0.85651,1.62517 2.075,2.86615 3.65625,3.72265 1.58125,0.85652 3.49231,1.28516 5.73242,1.28516 3.27231,0 5.8085,-0.85729 7.60938,-2.57031 1.80086,-1.71302 2.70117,-4.13876 2.70117,-7.2793 v -0.59375 l -6.91797,-0.0332 v 0.69336 c 0,1.01024 -0.29571,1.80008 -0.88867,2.37109 -0.59298,0.54905 -1.42778,0.82422 -2.50391,0.82422 -1.18594,0 -2.09748,-0.35191 -2.73437,-1.05469 -0.63689,-0.72474 -0.95508,-1.74675 -0.95508,-3.06445 v -4.2168 h 13.90039 v -9.35547 c 0,-2.34991 -0.41741,-4.33771 -1.25196,-5.96289 -0.81258,-1.64713 -2.00859,-2.89739 -3.58984,-3.7539 -1.55929,-0.85651 -3.43663,-1.28516 -5.63281,-1.28516 z m 30.50391,0 c -1.53733,0 -2.94302,0.5484 -4.2168,1.64648 -0.90842,0.78093 -1.62095,1.89154 -2.24024,3.15821 v -4.21289 h -7.24609 v 48.09765 h 7.24609 v -18.16797 c 0.51972,1.29029 1.17294,2.40997 2.07618,3.21094 1.18593,1.03221 2.56913,1.54883 4.15039,1.54883 1.58124,0 2.93268,-0.39492 4.05273,-1.18555 1.12005,-0.81258 1.97539,-1.9993 2.56836,-3.55859 0.59297,-1.55929 0.89063,-3.42539 0.89062,-5.59961 v -14.79102 c 10e-6,-2.15225 -0.28641,-3.98658 -0.85742,-5.50195 -0.571,-1.51537 -1.40581,-2.66836 -2.5039,-3.45898 -1.07613,-0.79063 -2.3826,-1.18555 -3.91992,-1.18555 z m -56.99024,6.45703 c 1.12005,0 1.98664,0.39492 2.60156,1.18555 0.61494,0.76866 0.92383,1.85616 0.92383,3.26172 v 3.85351 h -6.95117 v -3.55664 c 0,-1.51537 0.2957,-2.6796 0.88867,-3.49219 0.59297,-0.83454 1.43902,-1.25195 2.53711,-1.25195 z m 26.48633,0 c 1.12005,0 1.98663,0.39492 2.60156,1.18555 0.61493,0.76866 0.92188,1.85616 0.92188,3.26172 v 3.85351 h -6.94922 v -3.55664 c 0,-1.51537 0.2957,-2.6796 0.88867,-3.49219 0.59297,-0.83454 1.43902,-1.25195 2.53711,-1.25195 z m 27.375,0.0977 c 1.03221,0 1.83329,0.38563 2.4043,1.15429 0.571,0.74671 0.85742,1.81172 0.85742,3.19532 v 13.30859 c 0,1.44948 -0.28642,2.56875 -0.85742,3.35937 -0.57101,0.76866 -1.37209,1.1543 -2.4043,1.1543 -0.70278,0 -1.30738,-0.16471 -1.8125,-0.49414 -0.48316,-0.35139 -0.8556,-0.85677 -1.11914,-1.51562 -0.26354,-0.65886 -0.39649,-1.45066 -0.39649,-2.37305 v -13.57227 c 0,-0.90043 0.13295,-1.6678 0.39649,-2.30468 0.26354,-0.6369 0.63598,-1.11051 1.11914,-1.41797 0.50512,-0.32943 1.10972,-0.49414 1.8125,-0.49414 z" />
    </g>
  </g>
</svg>
